<svg xmlns="http://www.w3.org/2000/svg" xmlns:xlink="http://www.w3.org/1999/xlink" viewBox="0,0,256,256" width="64px" height="64px" fill-rule="nonzero"><defs><linearGradient x1="209.5" y1="459.755" x2="209.5" y2="74.757" gradientUnits="userSpaceOnUse" id="color-1"><stop offset="0.322" stop-color="#ffc000"></stop><stop offset="0.466" stop-color="#b074ee"></stop><stop offset="0.752" stop-color="#d8a1dd"></stop><stop offset="0.898" stop-color="#ffffff"></stop></linearGradient><linearGradient x1="115712.5" y1="207379.505" x2="115712.5" y2="33745.407" gradientUnits="userSpaceOnUse" id="color-2"><stop offset="0.322" stop-color="#ffc000"></stop><stop offset="0.466" stop-color="#b074ee"></stop><stop offset="0.752" stop-color="#d8a1dd"></stop><stop offset="0.898" stop-color="#ffffff"></stop></linearGradient><linearGradient x1="1170.5" y1="5579.06" x2="1170.5" y2="959.084" gradientUnits="userSpaceOnUse" id="color-3"><stop offset="0.322" stop-color="#ffc000"></stop><stop offset="0.466" stop-color="#b074ee"></stop><stop offset="0.752" stop-color="#d8a1dd"></stop><stop offset="0.898" stop-color="#ffffff"></stop></linearGradient><linearGradient x1="9600.5" y1="5579.06" x2="9600.5" y2="959.084" gradientUnits="userSpaceOnUse" id="color-4"><stop offset="0.322" stop-color="#ffc000"></stop><stop offset="0.466" stop-color="#b074ee"></stop><stop offset="0.752" stop-color="#d8a1dd"></stop><stop offset="0.898" stop-color="#ffffff"></stop></linearGradient></defs><g transform="translate(21.76,21.76) scale(0.83,0.83)"><g fill-opacity="0" fill="#dddddd" fill-rule="nonzero" stroke="none" stroke-width="1" stroke-linecap="butt" stroke-linejoin="miter" stroke-miterlimit="10" stroke-dasharray="" stroke-dashoffset="0" font-family="none" font-weight="none" font-size="none" text-anchor="none" style="mix-blend-mode: normal"><path d="M-26.21687,282.21687v-308.43373h308.43373v308.43373z" id="bgRectangle"></path></g><g fill="none" fill-rule="nonzero" stroke="none" stroke-width="1" stroke-linecap="butt" stroke-linejoin="miter" stroke-miterlimit="10" stroke-dasharray="" stroke-dashoffset="0" font-family="none" font-weight="none" font-size="none" text-anchor="none" style="mix-blend-mode: normal"><g transform="translate(127.89645,-53.26934) rotate(45) scale(0.5,0.5)"><path d="M335,408h-221v-53c0,-3.31371 -2.68629,-6 -6,-6h-24c-3.31371,0 -6,2.68629 -6,6v84c0,3.31371 2.68629,6 6,6h251c3.31371,0 6,-2.68629 6,-6v-25c0,-3.31371 -2.68629,-6 -6,-6zM329,433h-239v-72h12v53c0,3.31371 2.68629,6 6,6h221z" fill="url(#color-1)"></path><path d="M446,30h-379c-19.88225,0 -36,16.11775 -36,36v379c0,19.88225 16.11775,36 36,36h379c19.88225,0 36,-16.11775 36,-36v-379c0,-19.88225 -16.11775,-36 -36,-36zM242,220v-178h13v197h-163v-57h12v38c0,3.31371 2.68629,6 6,6h126c3.31371,0 6,-2.68629 6,-6zM43,121h113c3.31371,0 6,-2.68629 6,-6v-12h13v63h-13v-27c0,-3.31371 -2.68629,-6 -6,-6h-113zM43,296h141v51c0,3.31371 2.68629,6 6,6h115c3.31371,0 6,-2.68629 6,-6v-129h75c3.31371,0 6,-2.68629 6,-6v-58h13v76h-75c-3.31371,0 -6,2.68629 -6,6v130h-152v-51c0,-3.31371 -2.68629,-6 -6,-6h-123zM406,321v148h-12v-148c0,-3.31371 -2.68629,-6 -6,-6h-19v-12h63v12h-20c-3.31371,0 -6,2.68629 -6,6zM470,100h-140c-3.31371,0 -6,2.68629 -6,6v53h-13v-72h159zM470,75h-165c-3.31371,0 -6,2.68629 -6,6v84c0,3.31371 2.68629,6 6,6h25c3.31371,0 6,-2.68629 6,-6v-53h134v333c0,13.25483 -10.74517,24 -24,24h-28v-142h20c3.31371,0 6,-2.68629 6,-6v-24c0,-3.31371 -2.68629,-6 -6,-6h-75c-3.31371,0 -6,2.68629 -6,6v24c0,3.31371 2.68629,6 6,6h19v142h-315c-13.25483,0 -24,-10.74517 -24,-24v-124h117v51c0,3.31371 2.68629,6 6,6h164c3.31371,0 6,-2.68629 6,-6v-130h75c3.31371,0 6,-2.68629 6,-6v-88c0,-3.31371 -2.68629,-6 -6,-6h-25c-3.31371,0 -6,2.68629 -6,6v58h-75c-3.31371,0 -6,2.68629 -6,6v129h-103v-51c0,-3.31371 -2.68629,-6 -6,-6h-147v-139h107v27c0,3.31371 2.68629,6 6,6h25c3.31371,0 6,-2.68629 6,-6v-75c0,-3.31371 -2.68629,-6 -6,-6h-25c-3.31371,0 -6,2.68629 -6,6v12h-107v-43c0,-13.25483 10.74517,-24 24,-24h163v172h-114v-38c0,-3.31371 -2.68629,-6 -6,-6h-24c-3.31371,0 -6,2.68629 -6,6v69c0,3.31371 2.68629,6 6,6h175c3.31371,0 6,-2.68629 6,-6v-203h179c13.25483,0 24,10.74517 24,24z" fill="url(#color-2)"></path><path d="M68,62h-5c-3.31371,0 -6,2.68629 -6,6c0,3.31371 2.68629,6 6,6h5c3.31371,0 6,-2.68629 6,-6c0,-3.31371 -2.68629,-6 -6,-6z" fill="url(#color-3)"></path><path d="M154,62h-67c-3.31371,0 -6,2.68629 -6,6c0,3.31371 2.68629,6 6,6h67c3.31371,0 6,-2.68629 6,-6c0,-3.31371 -2.68629,-6 -6,-6z" fill="url(#color-4)"></path></g></g></g></svg>